<svg width="24" height="24" viewBox="0 0 24 24" fill="none" xmlns="http://www.w3.org/2000/svg">
<g clip-path="url(#clip0_3785_2122)">
<path d="M12.0501 0C15.2467 0.0015814 18.2471 1.23628 20.5032 3.47749C22.7594 5.71861 24.0012 8.69796 24 11.8658C23.9974 18.3382 18.7429 23.6163 12.2475 23.7212L12.0503 23.7228H12.0454C10.0762 23.7221 8.14069 23.2396 6.41559 22.3233L6.33497 22.2799L0 23.9287L1.69528 17.784C0.649688 15.9862 0.0994688 13.9462 0.100313 11.8563C0.102938 5.31889 5.46366 0 12.0501 0ZM12.0542 2.00279C6.57572 2.00279 2.12006 6.42354 2.11791 11.8573C2.11716 13.691 2.62641 15.4779 3.59156 17.0305L3.63637 17.1021L3.87262 17.475L2.86922 21.1115L6.62831 20.1332L6.99103 20.3466C8.49169 21.2302 10.2085 21.7047 11.9614 21.72L12.0462 21.7204H12.0503C17.5246 21.7204 21.9802 17.2994 21.9824 11.8652C21.9833 9.23191 20.9513 6.75572 19.0761 4.89293C17.2008 3.03014 14.707 2.00363 12.0542 2.0027M7.8195 6.38065C8.01844 6.38065 8.21794 6.38251 8.39175 6.39135C8.57512 6.40028 8.82122 6.32223 9.06347 6.89982C9.15647 7.12121 9.29784 7.46326 9.44259 7.81265L9.47363 7.88754C9.70659 8.44986 9.93947 9.01051 9.98428 9.09954C10.0588 9.24772 10.1085 9.42093 10.009 9.61851C9.90966 9.81637 9.85969 9.93982 9.71053 10.113C9.56119 10.2859 9.39703 10.4994 9.26269 10.632L9.24075 10.6537L9.219 10.6757C9.08587 10.8124 8.9745 10.969 9.13181 11.2364C9.30591 11.5331 9.90506 12.5035 10.7927 13.289C11.9332 14.2983 12.8953 14.6113 13.1939 14.7596C13.4925 14.908 13.6667 14.8832 13.8408 14.6852C14.0151 14.4876 14.5871 13.8203 14.7863 13.5236C14.9853 13.2271 15.1843 13.2767 15.4581 13.3754C15.5881 13.4224 15.9881 13.609 16.4042 13.8079L16.5336 13.8699C16.9501 14.0699 17.3563 14.2687 17.4982 14.3393C17.7968 14.4876 17.996 14.5618 18.0705 14.6852C18.1451 14.8089 18.1451 15.402 17.8963 16.0941C17.6475 16.7861 16.4546 17.4178 15.881 17.503C15.3666 17.5791 14.7157 17.6109 14.0003 17.3856C13.5668 17.2488 13.0105 17.0666 12.2981 16.7614C9.303 15.4782 7.34672 12.4855 7.19756 12.2879L7.18744 12.2745C7.00547 12.0332 5.97825 10.6517 5.97825 9.22298C5.97825 7.76484 6.74972 7.04809 7.02328 6.75144C7.29703 6.45507 7.62047 6.38065 7.8195 6.38065Z" fill="white"/>
</g>
<defs>
<clipPath id="clip0_3785_2122">
<rect width="24" height="24" fill="white"/>
</clipPath>
</defs>
</svg>
